<svg width="158" height="88" viewBox="0 0 158 88" fill="none" xmlns="http://www.w3.org/2000/svg">
<path d="M81.7997 87.8152C82.4977 86.8677 83.2034 85.9241 83.8958 84.9708C88.2011 79.0312 92.1421 72.8716 94.7521 65.9397C95.945 62.7763 96.7677 59.5312 96.8617 56.1188C97.0208 49.8522 94.3801 45.1324 89.2118 41.8192C85.173 39.2317 80.6624 37.9671 76.0119 37.1675C67.5374 35.7103 59.0226 35.8387 50.5058 36.5527C36.7549 37.7201 23.1591 40.3221 9.93394 44.3172C6.87897 45.2336 3.88919 46.3678 0.86874 47.4028C0.595615 47.5236 0.293466 47.5602 0 47.5079C2.21884 46.1324 4.42808 44.7433 6.65459 43.3834C20.1018 35.1525 34.1041 27.8933 48.5574 21.6597C66.6226 13.8913 85.1212 7.45742 104.364 3.3835C113.974 1.34849 123.668 -0.0873082 133.523 0.00413128C138.78 0.0547148 143.985 0.529422 148.971 2.36794C151.431 3.27455 153.702 4.52552 155.441 6.56248C158.416 10.043 158.467 14.0372 157.261 18.1928C155.932 22.7706 153.452 26.7336 150.66 30.504C145.258 37.7997 138.845 44.1227 132.133 50.1538C120.078 60.9728 107.125 70.609 93.8738 79.8444C89.929 82.5953 85.942 85.2918 81.9742 88L81.7997 87.8152Z" fill="#FF8000"/>
</svg>
